<?xml version="1.0" encoding="utf-8"?>
<!-- Generator: Adobe Illustrator 24.1.3, SVG Export Plug-In . SVG Version: 6.00 Build 0)  -->
<svg version="1.1" id="Warstwa_1" xmlns="http://www.w3.org/2000/svg" xmlns:xlink="http://www.w3.org/1999/xlink" x="0px" y="0px"
	 viewBox="0 0 800 800" style="enable-background:new 0 0 800 800;" xml:space="preserve">
<style type="text/css">
	.st0{fill:#98A4AF;}
</style>
<path class="st0" d="M776.9,343.7l-316.7-320l-0.1-0.1c-1.4-1.4-2.9-2.7-4.3-4c-0.5-0.4-0.9-0.9-1.4-1.3
	c-11.9-9.9-26.4-16-41.8-17.8l-0.9-0.1c-1-0.1-2-0.1-2.9-0.2C407,0.2,405.4,0,403.7,0h-0.4c-2.7,0-5.3,0.1-8,0.4
	c-1.7,0.2-3.4,0.5-5.1,0.8c-0.9,0.1-1.7,0.2-2.6,0.4c-2.1,0.4-4.1,0.9-6.1,1.5c-0.5,0.1-1,0.2-1.5,0.4c-2,0.6-4,1.4-6,2.1
	c-0.5,0.2-0.9,0.3-1.4,0.5c-1.9,0.8-3.6,1.6-5.4,2.5c-0.5,0.3-1.1,0.5-1.6,0.8c-1.6,0.9-3.2,1.8-4.8,2.8c-0.6,0.4-1.3,0.8-2,1.2
	c-1.4,1-2.8,2-4.2,3.1c-0.7,0.5-1.4,1-2.1,1.6c-1.4,1.1-2.6,2.3-3.9,3.5c-0.6,0.5-1.2,1-1.8,1.6l-0.3,0.3l-0.1,0.1l-323,319.7
	c-31.4,31.1-31.6,81.8-0.4,113.1c31.1,31.3,81.6,31.6,113,0.6l187-185.1V720c-0.4,44.2,35.1,80.3,79.3,80.7
	c44.1,0.4,80.2-35.1,80.7-79.2c0-0.5,0-1,0-1.5V274.6l179.8,181.7c31.1,31.4,81.7,31.7,113.1,0.6S808,375.2,776.9,343.7
	C776.9,343.7,776.9,343.7,776.9,343.7"/>
</svg>
