<?xml version="1.0" encoding="utf-8"?>
<!-- Generator: Adobe Illustrator 24.1.3, SVG Export Plug-In . SVG Version: 6.00 Build 0)  -->
<svg version="1.1" id="Warstwa_1" xmlns="http://www.w3.org/2000/svg" xmlns:xlink="http://www.w3.org/1999/xlink" x="0px" y="0px"
	 viewBox="0 0 24 24" style="enable-background:new 0 0 24 24;" xml:space="preserve">
<style type="text/css">
	.st0{fill:#98A4AF;}
</style>
<path class="st0" d="M19.5,0h-15C2,0,0,2,0,4.5v15C0,22,2,24,4.5,24h15c2.5,0,4.5-2,4.5-4.5v-15C24,2,22,0,19.5,0z M18.9,13.6H9.2
	l4,4c0.7,0.7,0.7,1.8,0,2.4c-0.7,0.7-1.8,0.7-2.4,0l-6.9-6.9l0,0c0,0-0.1-0.1-0.1-0.1l0,0c0,0,0-0.1-0.1-0.1l0,0c0,0,0-0.1-0.1-0.1
	l0,0c0,0,0-0.1-0.1-0.1l0,0c0,0,0-0.1,0-0.1l0,0c0,0,0-0.1,0-0.1l0-0.1c0,0,0-0.1,0-0.1c0-0.1,0-0.1,0-0.2v-0.1l0-0.1v0
	c0-0.3,0.2-0.6,0.4-0.9l0,0c0,0,0.1-0.1,0.1-0.1l6.9-6.8h0c0.7-0.6,1.7-0.6,2.4,0c0.7,0.7,0.7,1.7,0,2.4l-3.9,3.9h9.6c0,0,0,0,0,0
	c0.9,0,1.7,0.8,1.7,1.7C20.6,12.9,19.8,13.6,18.9,13.6z"/>
</svg>
