<?xml version="1.0" encoding="utf-8"?>
<!-- Generator: Adobe Illustrator 24.1.3, SVG Export Plug-In . SVG Version: 6.00 Build 0)  -->
<svg version="1.1" id="Warstwa_1" xmlns="http://www.w3.org/2000/svg" xmlns:xlink="http://www.w3.org/1999/xlink" x="0px" y="0px"
	 viewBox="0 0 24 24" style="enable-background:new 0 0 24 24;" xml:space="preserve">
<style type="text/css">
	.st0{fill:#FCFCFC;}
</style>
<path class="st0" d="M18.3,2H5.8C3.7,2,2,3.7,2,5.8v12.5C2,20.3,3.7,22,5.8,22h12.5c2.1,0,3.8-1.7,3.8-3.8V5.8C22,3.7,20.3,2,18.3,2
	z M17.7,13.4h-8l3.3,3.3c0.6,0.6,0.5,1.5,0,2c-0.6,0.6-1.5,0.6-2,0l-5.7-5.8l0,0c0,0,0,0-0.1-0.1l0,0c0,0,0,0-0.1-0.1l0,0
	c0,0,0-0.1,0-0.1l0,0c0,0,0-0.1,0-0.1l0,0c0,0,0-0.1,0-0.1l0,0c0,0,0-0.1,0-0.1l0,0c0,0,0-0.1,0-0.1c0,0,0-0.1,0-0.1v-0.1l0-0.1v0
	c0-0.3,0.1-0.5,0.3-0.8l0,0c0,0,0-0.1,0.1-0.1L11,5.3h0c0.6-0.5,1.4-0.5,2,0c0.6,0.6,0.6,1.5,0,2l-3.3,3.2h8c0,0,0,0,0,0
	c0.8,0,1.4,0.6,1.4,1.4C19.2,12.7,18.5,13.4,17.7,13.4z"/>
</svg>
