<?xml version="1.0" encoding="utf-8"?>
<!-- Generator: Adobe Illustrator 24.1.3, SVG Export Plug-In . SVG Version: 6.00 Build 0)  -->
<svg version="1.1" id="Warstwa_1" xmlns="http://www.w3.org/2000/svg" xmlns:xlink="http://www.w3.org/1999/xlink" x="0px" y="0px"
	 viewBox="0 0 84 84" style="enable-background:new 0 0 84 84;" xml:space="preserve">
<style type="text/css">
	.st0{fill:#FFFFFF;}
</style>
<path class="st0" d="M42.2,84C19,84.1,0.2,65.4,0.1,42.2c0-11.1,4.3-21.8,12.1-29.7c0.1-0.1,0.2-0.2,0.2-0.2
	c16.5-16.4,43.2-16.4,59.7,0c1.5,1.5,1.5,3.9,0,5.4l0,0c-1.5,1.5-3.9,1.5-5.4,0c-13.5-13.4-35.3-13.4-48.9,0
	C4.4,31,4.3,52.7,17.6,66.1c0.1,0.1,0.1,0.1,0.2,0.2c13.5,13.4,35.3,13.4,48.9,0c0.9-0.8,0.9-2.2,0-3.1c0,0,0,0,0,0l0,0
	c-0.9-0.9-2.2-0.9-3.1,0c-11.8,11.7-30.9,11.7-42.7,0C9.2,51.6,9.1,32.7,20.7,21c0,0,0,0,0,0c0.1-0.1,0.1-0.1,0.2-0.2
	c11.8-11.7,30.9-11.7,42.7,0c3.8,3.8,3.9,10,0.1,13.8l0,0l-0.1,0.1c-3.9,3.8-10.1,3.8-14,0c-4-4.1-10.6-4.1-14.7,0s-4.1,10.6,0,14.7
	s10.6,4.1,14.7,0c0,0,0,0,0,0l0,0c1.5-1.5,3.9-1.5,5.4,0c1.5,1.5,1.5,3.9,0,5.4l0,0l0,0c-7,7.1-18.5,7.1-25.5,0.1
	s-7.1-18.5-0.1-25.5s18.5-7.1,25.5-0.1c0,0,0,0,0,0l0.1,0.1c0.9,0.8,2.3,0.8,3.1-0.1c0.8-0.8,0.8-2.2,0-3c-8.8-8.7-23-8.7-31.8,0
	c-8.7,8.7-8.8,22.8-0.1,31.5c0,0,0.1,0.1,0.1,0.1c8.8,8.7,23,8.7,31.8,0c3.9-3.8,10.1-3.8,14,0c3.8,3.8,3.9,10,0.1,13.8l-0.1,0.1
	C64.2,79.6,53.4,84,42.2,84"/>
</svg>
