<?xml version="1.0" encoding="utf-8"?>
<!-- Generator: Adobe Illustrator 24.1.3, SVG Export Plug-In . SVG Version: 6.00 Build 0)  -->
<svg version="1.1" id="Warstwa_1" xmlns="http://www.w3.org/2000/svg" xmlns:xlink="http://www.w3.org/1999/xlink" x="0px" y="0px"
	 viewBox="0 0 24 24" style="enable-background:new 0 0 24 24;" xml:space="preserve">
<style type="text/css">
	.st0{fill:#E72176;}
	.st1{fill:#FCFCFC;}
</style>
<rect x="4.1" y="4.8" class="st0" width="16.2" height="14.2"/>
<path class="st1" d="M5.8,22h12.5c2.1,0,3.8-1.7,3.8-3.8V5.8C22,3.7,20.3,2,18.3,2H5.8C3.7,2,2,3.7,2,5.8v12.5C2,20.3,3.7,22,5.8,22
	z M6.3,10.6h8L11,7.3c-0.6-0.6-0.5-1.5,0-2c0.6-0.6,1.5-0.6,2,0l5.7,5.8l0,0c0,0,0,0,0.1,0.1l0,0c0,0,0,0,0.1,0.1l0,0v0.1l0,0v0.1
	l0,0v0.1l0,0v0.1l0,0v0.1v0.1V12v0.1l0,0c0,0.3-0.1,0.5-0.3,0.8l0,0c0,0,0,0.1-0.1,0.1L13,18.7l0,0c-0.6,0.5-1.4,0.5-2,0
	c-0.6-0.6-0.6-1.5,0-2l3.3-3.2h-8l0,0c-0.8,0-1.4-0.6-1.4-1.4C4.8,11.3,5.5,10.6,6.3,10.6z"/>
</svg>
