<?xml version="1.0" encoding="utf-8"?>
<!-- Generator: Adobe Illustrator 24.1.3, SVG Export Plug-In . SVG Version: 6.00 Build 0)  -->
<svg version="1.1" id="Warstwa_1" xmlns="http://www.w3.org/2000/svg" xmlns:xlink="http://www.w3.org/1999/xlink" x="0px" y="0px"
	 viewBox="0 0 24 24" style="enable-background:new 0 0 24 24;" xml:space="preserve">
<style type="text/css">
	.st0{fill:#FFFFFF;}
</style>
<path class="st0" d="M6.3,4.8c0.9-0.1,1.8,0.6,1.8,1.6c0.1,0.9-0.6,1.8-1.6,1.8c-0.1,0-0.2,0-0.3,0C5.4,8.3,4.6,7.6,4.5,6.6
	C4.4,5.7,5.1,4.9,6.1,4.8C6.2,4.8,6.2,4.8,6.3,4.8z M15.9,9.3c2.2,0,3.6,1.3,3.6,3.9v6.1h-3.3v-6.1c0-0.7-0.5-1.3-1.3-1.4
	c-0.1,0-0.2,0-0.2,0c-1.8,0-1.8,1.8-1.8,2.5v4.9H9.6V9.3h3.3V11C13.5,9.9,14.6,9.2,15.9,9.3L15.9,9.3z M4.7,9.3H8v9.9H4.7L4.7,9.3z"
	/>
</svg>
