<?xml version="1.0" encoding="utf-8"?>
<!-- Generator: Adobe Illustrator 24.1.3, SVG Export Plug-In . SVG Version: 6.00 Build 0)  -->
<svg version="1.1" id="Warstwa_1" xmlns="http://www.w3.org/2000/svg" xmlns:xlink="http://www.w3.org/1999/xlink" x="0px" y="0px"
	 viewBox="0 0 496.5 170.9" style="enable-background:new 0 0 496.5 170.9;" xml:space="preserve">
<style type="text/css">
	.st0{fill:#FFFFFF;}
	.st1{fill:#FF0380;}
	.st2{fill:url(#SVGID_1_);}
	.st3{fill:url(#SVGID_2_);}
</style>
<path class="st0" d="M46,170.1c-1.7,0-3-1.4-3-3.1v-15c0-5.3-1.7-9.8-7.7-9.8s-7.7,4.4-7.7,9.7v15c0.2,1.7-1.1,3.2-2.8,3.4
	s-3.2-1.1-3.4-2.8c0-0.2,0-0.4,0-0.6v-15c0-5.1-1.5-9.8-7.4-9.8s-8,4.2-8,9.7v15c0.2,1.7-1.1,3.2-2.8,3.4c-1.7,0.2-3.2-1.1-3.4-2.8
	c0-0.2,0-0.4,0-0.6v-27.4c0-1.5,1.2-2.7,2.7-2.7c0,0,0,0,0,0c1.5,0,2.8,1.2,2.9,2.7v1.6c2.2-3,5.8-4.6,9.5-4.4
	c4.1-0.2,8,1.9,10.1,5.5c2.3-3.7,6.4-5.8,10.7-5.5c8.6,0,13.2,5.5,13.2,13.7v16.5c0,1.7-1.3,3.1-3,3.2
	C46.1,170.1,46.1,170.1,46,170.1z"/>
<path class="st0" d="M95.9,170.9c-9.6,0.1-17.4-7.7-17.5-17.3l0,0c-0.1-9.7,7.6-17.6,17.3-17.7s17.6,7.6,17.7,17.3
	s-7.6,17.6-17.3,17.7C96,170.9,96,170.9,95.9,170.9z M95.9,142.3c-6.4,0-11.6,5.1-11.6,11.4s5.1,11.6,11.4,11.6s11.6-5.1,11.6-11.4
	c0,0,0-0.1,0-0.1c0-6.3-5-11.4-11.3-11.5c0,0,0,0,0,0C96,142.3,95.9,142.3,95.9,142.3z"/>
<path class="st0" d="M189.4,170.1c-1.7,0-3-1.4-3-3.1v-15c0-5.3-1.7-9.8-7.7-9.8s-7.7,4.4-7.7,9.7v15c0.2,1.7-1.1,3.2-2.8,3.4
	c-1.7,0.2-3.2-1.1-3.4-2.8c0-0.2,0-0.4,0-0.6v-15c0-5.1-1.5-9.8-7.4-9.8s-8,4.2-8,9.7v15c0,1.7-1.4,3.1-3.1,3.1
	c-1.7,0-3.1-1.4-3.1-3.1c0,0,0,0,0,0v-27.4c0-1.5,1.2-2.7,2.7-2.7h0c1.5,0.1,2.7,1.3,2.7,2.7v1.6c4.3-5.1,11.9-5.8,17-1.6
	c0.9,0.8,1.8,1.7,2.4,2.7c2.3-3.7,6.4-5.8,10.7-5.5c8.6,0,13.2,5.5,13.2,13.7v16.5C192.2,168.6,191,169.9,189.4,170.1z"/>
<path class="st0" d="M254.7,156.4h-26.9c1,5.1,5.4,8.8,10.6,8.9c3.7,0,7.2-2,9.1-5.2c0.5-0.9,1.5-1.5,2.6-1.6c1.5,0,2.7,1.2,2.7,2.7
	c0,0,0,0,0,0c0,0.3-0.1,0.6-0.2,0.9c-2.9,5.3-8.5,8.7-14.5,8.7c-9.2-0.3-16.6-7.9-16.5-17.1c-0.1-9.1,7.2-16.6,16.4-16.8
	c9.1-0.1,16.6,7.2,16.8,16.4C254.8,154.4,254.8,155.4,254.7,156.4z M238.3,142.3c-5.4-0.1-10,4.1-10.5,9.5h20.9
	C248.2,146.4,243.7,142.3,238.3,142.3L238.3,142.3z"/>
<path class="st0" d="M310.6,170.1c-1.7,0-3-1.4-3-3.1v-14.6c0-5.5-1.8-10.2-8.1-10.2s-8.6,4.7-8.6,10.1V167c0,1.7-1.4,3-3,3
	c-1.7,0-3-1.3-3-3v-27.5c0-1.5,1.2-2.8,2.7-2.9c1.6,0,3,1.2,3.2,2.9v1.5c2.2-2.8,5.7-4.4,9.2-4.4c8.7,0,13.6,5.5,13.6,14.8v15.5
	C313.6,168.6,312.2,170,310.6,170.1z"/>
<path class="st0" d="M357.9,143.3h-4.4V167c0,1.7-1.3,3-3,3.1c-1.7-0.1-3-1.4-3.1-3.1v-23.7h-4.3c-1.5-0.1-2.7-1.3-2.7-2.7
	c0-1.5,1.2-2.7,2.7-2.7h0h4.3V130c0-1.7,1.4-3,3.1-3c1.6,0,3,1.3,3,2.9c0,0,0,0.1,0,0.1v7.6h4.4c1.5,0,2.7,1.2,2.7,2.7c0,0,0,0,0,0
	C360.7,141.9,359.5,143.2,357.9,143.3z"/>
<path class="st0" d="M402.9,170.9c-10.2,0-14.2-6.1-14.2-15.8v-14.5c0-1.7,1.4-3.1,3.1-3.1c1.7,0,3.1,1.4,3.1,3.1c0,0,0,0,0,0v14.5
	c0,5.5,1.8,10.2,8.2,10.2s8.1-4.6,8.1-10.2v-14.5c0-1.7,1.4-3.1,3-3.1c1.7,0,3,1.4,3.1,3.1v14.5C417.1,164.8,413,170.9,402.9,170.9z
	"/>
<path class="st0" d="M493.7,170.1c-1.7,0-3-1.4-3-3.1v-15c0-5.3-1.7-9.8-7.7-9.8s-7.7,4.4-7.7,9.7v15c0.2,1.7-1.1,3.2-2.8,3.4
	c-1.7,0.2-3.2-1.1-3.4-2.8c0-0.2,0-0.4,0-0.6v-15c0-5.1-1.5-9.8-7.4-9.8s-8,4.2-8,9.7v15c0.2,1.7-1.1,3.2-2.8,3.4
	c-1.7,0.2-3.2-1.1-3.4-2.8c0-0.2,0-0.4,0-0.6v-27.4c0-1.5,1.2-2.7,2.7-2.7c1.5,0,2.7,1.2,2.7,2.7c0,0,0,0,0,0v1.6
	c4.3-5.1,11.9-5.8,17-1.6c0.9,0.8,1.8,1.7,2.4,2.7c2.3-3.7,6.4-5.8,10.7-5.5c8.6,0,13.2,5.5,13.2,13.7v16.5
	C496.5,168.6,495.3,169.9,493.7,170.1z"/>
<path class="st1" d="M268.2,3.2L268.2,3.2c11.4-6.6,25.9-2.7,32.5,8.7l31.8,55.2c6.6,11.4,2.7,25.9-8.7,32.5l0,0
	c-11.4,6.6-25.9,2.7-32.5-8.7l-31.8-55.2C252.9,24.3,256.8,9.8,268.2,3.2z"/>
<linearGradient id="SVGID_1_" gradientUnits="userSpaceOnUse" x1="340.5658" y1="679.9509" x2="251.6089" y2="628.5927" gradientTransform="matrix(1 0 0 1 -1.984408e-03 -602.7545)">
	<stop  offset="0.3" style="stop-color:#FF0380"/>
	<stop  offset="1" style="stop-color:#000000"/>
</linearGradient>
<path class="st2" d="M268.3,3.4L268.3,3.4c11.4-6.6,25.9-2.7,32.5,8.7l31.8,55.2c6.6,11.4,2.7,25.9-8.7,32.5l0,0
	c-11.4,6.6-25.9,2.7-32.5-8.7l-31.8-55.2C253,24.5,256.9,9.9,268.3,3.4z"/>
<path class="st1" d="M227.7,67.1l31.8-55.2c6.6-11.4,21.1-15.3,32.5-8.7l0,0c11.4,6.6,15.3,21.1,8.7,32.5l-31.8,55.2
	c-6.6,11.4-21.1,15.3-32.5,8.7l0,0C225,93,221.1,78.4,227.7,67.1z"/>
<path class="st1" d="M204.8,3.2L204.8,3.2c11.4-6.6,25.9-2.7,32.5,8.7l31.8,55.2c6.6,11.4,2.7,25.9-8.7,32.5l0,0
	c-11.4,6.6-25.9,2.7-32.5-8.7l-31.8-55.2C189.5,24.3,193.4,9.8,204.8,3.2z"/>
<linearGradient id="SVGID_2_" gradientUnits="userSpaceOnUse" x1="277.1833" y1="679.8713" x2="188.2233" y2="628.5271" gradientTransform="matrix(1 0 0 1 -3.259110e-04 -602.7569)">
	<stop  offset="0.3" style="stop-color:#FF0380"/>
	<stop  offset="1" style="stop-color:#000000"/>
</linearGradient>
<path class="st3" d="M204.9,3.3L204.9,3.3c11.4-6.6,25.9-2.7,32.5,8.7l31.8,55.2c6.6,11.4,2.7,25.9-8.7,32.5l0,0
	c-11.4,6.6-25.9,2.7-32.5-8.7l-31.8-55.2C189.6,24.4,193.5,9.8,204.9,3.3z"/>
<path class="st1" d="M164.3,67.1l31.8-55.2c6.6-11.4,21.1-15.3,32.5-8.7l0,0c11.4,6.6,15.3,21.1,8.7,32.5l-31.8,55.2
	c-6.6,11.4-21.1,15.3-32.5,8.7l0,0C161.6,93,157.7,78.4,164.3,67.1z"/>
</svg>
