<?xml version="1.0" encoding="utf-8"?>
<!-- Generator: Adobe Illustrator 24.1.3, SVG Export Plug-In . SVG Version: 6.00 Build 0)  -->
<svg version="1.1" id="Warstwa_1" xmlns="http://www.w3.org/2000/svg" xmlns:xlink="http://www.w3.org/1999/xlink" x="0px" y="0px"
	 viewBox="0 0 188 108.9" style="enable-background:new 0 0 188 108.9;" xml:space="preserve">
<style type="text/css">
	.st0{fill:#FF0380;}
	.st1{fill:url(#SVGID_1_);}
	.st2{fill:url(#SVGID_2_);}
</style>
<path class="st0" d="M114.2,3.2L114.2,3.2c11.4-6.6,25.9-2.7,32.5,8.7l31.8,55.2c6.6,11.4,2.7,25.9-8.7,32.5l0,0
	c-11.4,6.6-25.9,2.7-32.5-8.7l-31.8-55.2C98.9,24.3,102.8,9.8,114.2,3.2z"/>
<linearGradient id="SVGID_1_" gradientUnits="userSpaceOnUse" x1="186.5658" y1="679.9509" x2="97.6089" y2="628.5927" gradientTransform="matrix(1 0 0 1 -1.984408e-03 -602.7545)">
	<stop  offset="0.3" style="stop-color:#FF0380"/>
	<stop  offset="1" style="stop-color:#000000"/>
</linearGradient>
<path class="st1" d="M114.3,3.4L114.3,3.4c11.4-6.6,25.9-2.7,32.5,8.7l31.8,55.2c6.6,11.4,2.7,25.9-8.7,32.5l0,0
	c-11.4,6.6-25.9,2.7-32.5-8.7l-31.8-55.2C99,24.5,102.9,9.9,114.3,3.4z"/>
<path class="st0" d="M73.7,67.1l31.8-55.2c6.6-11.4,21.1-15.3,32.5-8.7l0,0c11.4,6.6,15.3,21.1,8.7,32.5l-31.8,55.2
	c-6.6,11.4-21.1,15.3-32.5,8.7l0,0C71,93,67.1,78.4,73.7,67.1z"/>
<path class="st0" d="M50.8,3.2L50.8,3.2c11.4-6.6,25.9-2.7,32.5,8.7l31.8,55.2c6.6,11.4,2.7,25.9-8.7,32.5l0,0
	c-11.4,6.6-25.9,2.7-32.5-8.7L42.1,35.7C35.5,24.3,39.4,9.8,50.8,3.2z"/>
<linearGradient id="SVGID_2_" gradientUnits="userSpaceOnUse" x1="123.1833" y1="679.8713" x2="34.2233" y2="628.5271" gradientTransform="matrix(1 0 0 1 -3.259110e-04 -602.7569)">
	<stop  offset="0.3" style="stop-color:#FF0380"/>
	<stop  offset="1" style="stop-color:#000000"/>
</linearGradient>
<path class="st2" d="M50.9,3.3L50.9,3.3C62.3-3.3,76.8,0.6,83.4,12l31.8,55.2c6.6,11.4,2.7,25.9-8.7,32.5l0,0
	c-11.4,6.6-25.9,2.7-32.5-8.7L42.2,35.8C35.6,24.4,39.5,9.8,50.9,3.3z"/>
<path class="st0" d="M10.3,67.1l31.8-55.2C48.7,0.5,63.2-3.4,74.6,3.2l0,0C86,9.8,89.9,24.3,83.3,35.7L51.5,90.8
	c-6.6,11.4-21.1,15.3-32.5,8.7l0,0C7.6,93,3.7,78.4,10.3,67.1z"/>
</svg>
