<?xml version="1.0" encoding="utf-8"?>
<!-- Generator: Adobe Illustrator 24.1.3, SVG Export Plug-In . SVG Version: 6.00 Build 0)  -->
<svg version="1.1" id="Warstwa_1" xmlns="http://www.w3.org/2000/svg" xmlns:xlink="http://www.w3.org/1999/xlink" x="0px" y="0px"
	 viewBox="0 0 800 800" style="enable-background:new 0 0 800 800;" xml:space="preserve">
<style type="text/css">
	.st0{fill:#E72176;}
</style>
<path class="st0" d="M720,320.3H538.6l90.7-157.2c22.2-38.2,9.3-87.2-28.8-109.4c-38.2-22.2-87.1-9.3-109.4,28.8
	c-0.1,0.2-0.2,0.4-0.3,0.6L400,240.2L309.3,83c-22-38.3-70.9-51.5-109.2-29.5s-51.5,70.9-29.5,109.2c0.1,0.1,0.1,0.2,0.2,0.3
	l90.7,157.2H80c-44.2,0.2-79.9,36.1-79.8,80.3c0.2,44,35.8,79.6,79.8,79.8h181.4l-90.7,157.2c-22.1,38.3-9,87.2,29.3,109.3
	c38.3,22.1,87.2,9,109.3-29.3L400,560.4l90.7,157.2c21.9,38.4,70.8,51.7,109.2,29.7c38.4-21.9,51.7-70.8,29.7-109.2
	c0,0-0.1-0.1-0.1-0.1c-0.1-0.1-0.2-0.3-0.2-0.4l-90.7-157.2H720c44.2-0.2,79.9-36.1,79.8-80.3C799.6,356.1,764,320.4,720,320.3"/>
</svg>
