<?xml version="1.0" encoding="utf-8"?>
<!-- Generator: Adobe Illustrator 24.1.3, SVG Export Plug-In . SVG Version: 6.00 Build 0)  -->
<svg version="1.1" id="Warstwa_1" xmlns="http://www.w3.org/2000/svg" xmlns:xlink="http://www.w3.org/1999/xlink" x="0px" y="0px"
	 viewBox="0 0 24 24" style="enable-background:new 0 0 24 24;" xml:space="preserve">
<style type="text/css">
	.st0{fill:#FFFFFF;}
</style>
<path class="st0" d="M14.9,5.8c0.9,0,1.7,0.4,2.3,1c0.7-0.1,1.3-0.4,1.9-0.8c-0.2,0.7-0.7,1.3-1.2,1.7c0.6-0.1,1.1-0.2,1.7-0.4
	c-0.4,0.6-0.9,1.1-1.4,1.5c0,0,0,0.1,0,0.1c0,0,0,0.1,0,0.1c0,0,0,0.1,0,0.1c0,4.9-4,8.9-8.9,8.9c-1.7,0-3.3-0.5-4.7-1.3
	c1.6,0.1,3.2-0.3,4.4-1.3c-1.3,0-2.5-0.9-2.9-2.2c0.5,0.1,0.9,0.1,1.4,0C6,13,5,11.7,5,10.2c0.4,0.2,0.9,0.4,1.4,0.4
	C5,9.7,4.6,7.8,5.5,6.4c1.6,2,3.9,3.2,6.4,3.3c-0.4-1.7,0.7-3.4,2.3-3.8C14.4,5.9,14.7,5.8,14.9,5.8L14.9,5.8z"/>
</svg>
